<svg xmlns="http://www.w3.org/2000/svg" width="100%" viewBox="0 0 113 41" fill="none" class="svg-logo"><path d="M104.938 37.0071C104.938 37.079 104.93 37.2388 104.922 37.3027H101.791C101.879 38.0056 102.358 38.4688 103.085 38.4688C103.628 38.4688 104.068 38.2052 104.164 37.7899H104.898C104.755 38.6046 104.004 39.1318 103.061 39.1318C101.927 39.1318 101.064 38.2452 101.064 37.087C101.064 35.9608 101.935 35.0742 103.053 35.0742C104.1 35.0742 104.938 35.8809 104.938 37.0071ZM101.815 36.6797H104.14C104.076 36.1365 103.636 35.7452 103.021 35.7452C102.414 35.7452 101.951 36.0966 101.815 36.6797Z" fill="currentColor"/><path d="M98.4698 39.1318C97.3356 39.1318 96.457 38.2532 96.457 37.111C96.457 35.9608 97.3356 35.0742 98.4698 35.0742C99.3804 35.0742 100.171 35.6813 100.299 36.496H99.5481C99.4363 36.0806 98.981 35.7771 98.4698 35.7771C97.735 35.7771 97.1759 36.3522 97.1759 37.111C97.1759 37.8538 97.735 38.4289 98.4698 38.4289C98.981 38.4289 99.4523 38.1254 99.5561 37.6781H100.299C100.187 38.5327 99.3884 39.1318 98.4698 39.1318Z" fill="currentColor"/><path d="M93.7642 35.0742C94.7706 35.0742 95.3936 35.7452 95.3936 36.8234V39.0519H94.6588V36.9033C94.6588 36.2244 94.2435 35.7771 93.5965 35.7771C92.9415 35.7771 92.5182 36.2244 92.5182 36.9033V39.0519H91.7754V35.1541H92.5182V35.833C92.7658 35.3538 93.2051 35.0742 93.7642 35.0742Z" fill="currentColor"/><path d="M88.9574 35.0742C90.0037 35.0742 90.5947 35.6972 90.5947 36.6238V39.0519H89.8919V38.4928C89.6203 38.9001 89.189 39.1318 88.6219 39.1318C87.8551 39.1318 87.3359 38.6445 87.3359 38.0056C87.3359 37.1669 88.0708 36.6877 89.2768 36.6877H89.8919V36.5838C89.8919 36.0327 89.5245 35.6813 88.9574 35.6813C88.4701 35.6813 88.0708 36.0007 88.0388 36.44H87.3839C87.4398 35.6733 88.1267 35.0742 88.9574 35.0742ZM88.7417 38.5487C89.4286 38.5487 89.8919 38.0375 89.8919 37.4864V37.2388H89.2689C88.4462 37.2388 87.9909 37.4704 87.9909 37.9417C87.9909 38.3011 88.2784 38.5487 88.7417 38.5487Z" fill="currentColor"/><path d="M84.5963 35.0742C85.6027 35.0742 86.2257 35.7452 86.2257 36.8234V39.0519H85.4908V36.9033C85.4908 36.2244 85.0755 35.7771 84.4285 35.7771C83.7736 35.7771 83.3502 36.2244 83.3502 36.9033V39.0519H82.6074V35.1541H83.3502V35.833C83.5978 35.3538 84.0371 35.0742 84.5963 35.0742Z" fill="currentColor"/><path d="M80.9796 33.4043C81.2432 33.4043 81.4748 33.6359 81.4748 33.8995C81.4748 34.1711 81.2432 34.3947 80.9796 34.3947C80.708 34.3947 80.4844 34.1711 80.4844 33.8995C80.4844 33.6359 80.708 33.4043 80.9796 33.4043ZM80.6042 35.1535H81.347V39.0513H80.6042V35.1535Z" fill="currentColor"/><path d="M76.5371 33.4609H79.748V34.1958H77.3119V35.8172H79.4844V36.552H77.3119V39.052H76.5371V33.4609Z" fill="currentColor"/><path d="M71.4509 35.0742C72.5132 35.0742 73.3519 35.9768 73.3519 37.103C73.3519 38.2292 72.5132 39.1318 71.4509 39.1318C70.772 39.1318 70.2608 38.8123 69.9733 38.2691V40.4656H69.2305V35.1541H69.9733V35.9368C70.2608 35.3937 70.772 35.0742 71.4509 35.0742ZM71.2992 38.4289C72.042 38.4289 72.6251 37.8458 72.6251 37.103C72.6251 36.3602 72.042 35.7771 71.2992 35.7771C70.5404 35.7771 69.9733 36.3362 69.9733 37.103C69.9733 37.8698 70.5404 38.4289 71.2992 38.4289Z" fill="currentColor"/><path d="M66.4124 35.0742C67.4588 35.0742 68.0498 35.6972 68.0498 36.6238V39.0519H67.347V38.4928C67.0754 38.9001 66.6441 39.1318 66.077 39.1318C65.3102 39.1318 64.791 38.6445 64.791 38.0056C64.791 37.1669 65.5258 36.6877 66.7319 36.6877H67.347V36.5838C67.347 36.0327 66.9795 35.6813 66.4124 35.6813C65.9252 35.6813 65.5258 36.0007 65.4939 36.44H64.8389C64.8949 35.6733 65.5818 35.0742 66.4124 35.0742ZM66.1968 38.5487C66.8837 38.5487 67.347 38.0375 67.347 37.4864V37.2388H66.7239C65.9013 37.2388 65.446 37.4704 65.446 37.9417C65.446 38.3011 65.7335 38.5487 66.1968 38.5487Z" fill="currentColor"/><path d="M62.0513 35.0742C63.0577 35.0742 63.6807 35.7452 63.6807 36.8234V39.0519H62.9459V36.9033C62.9459 36.2244 62.5306 35.7771 61.8836 35.7771C61.2286 35.7771 60.8053 36.2244 60.8053 36.9033V39.0519H60.0625V35.1541H60.8053V35.833C61.0529 35.3538 61.4922 35.0742 62.0513 35.0742Z" fill="currentColor"/><path d="M56.9901 39.1317C55.8079 39.1317 54.9453 38.349 54.9453 37.2866H55.7041C55.7041 37.9496 56.2393 38.4049 56.9901 38.4049C57.6929 38.4049 58.2041 38.0375 58.2041 37.5023C58.2041 36.0646 55.0252 36.9672 55.0252 34.9144C55.0252 34.0198 55.8159 33.3809 56.8862 33.3809C58.1243 33.3809 58.7952 34.1476 58.7952 35.0662H58.0044C57.9885 34.5151 57.5332 34.1077 56.8623 34.1077C56.2233 34.1077 55.776 34.4352 55.776 34.9144C55.776 36.2243 58.9709 35.3218 58.9709 37.5023C58.9709 38.4448 58.1243 39.1317 56.9901 39.1317Z" fill="currentColor"/><path d="M51.3338 35.1543H52.1245L49.8961 40.4738H49.1053L49.7922 38.9163L48.2188 35.1543H49.0095L50.1677 38.0617L51.3338 35.1543Z" fill="currentColor"/><path d="M45.8337 35.0744C46.8961 35.0744 47.7347 35.9769 47.7347 37.1031C47.7347 38.2294 46.8961 39.1319 45.8337 39.1319C45.1548 39.1319 44.6436 38.8124 44.3561 38.2693V39.052H43.6133V33.4609H44.3561V35.937C44.6436 35.3939 45.1548 35.0744 45.8337 35.0744ZM45.682 38.429C46.4248 38.429 47.0079 37.846 47.0079 37.1031C47.0079 36.3603 46.4248 35.7773 45.682 35.7773C44.9232 35.7773 44.3561 36.3364 44.3561 37.1031C44.3561 37.8699 44.9232 38.429 45.682 38.429Z" fill="currentColor"/><path d="M19.3578 13.5522C18.6393 13.0334 17.8211 12.5744 16.9031 12.1952C15.9851 11.816 15.0472 11.5566 14.0893 11.3969C13.1314 11.2373 12.1934 11.0577 11.2754 10.8781C10.3574 10.6785 9.55915 10.4989 8.82076 10.3193C8.10232 10.1397 7.52359 9.84032 7.08455 9.42124C6.64551 9.00215 6.42598 8.48328 6.42598 7.84468C6.42598 7.02646 6.80516 6.3679 7.5635 5.88894C8.32185 5.40999 9.29972 5.17051 10.4771 5.17051C11.8142 5.17051 12.9118 5.46986 13.7899 6.06855C14.668 6.66724 15.1669 7.44555 15.3066 8.36355H21.3335C21.0341 5.78916 19.8766 3.77355 17.861 2.31673C15.8654 0.839952 13.4507 0.101562 10.5969 0.101562C7.58346 0.101562 5.16872 0.859909 3.35268 2.39656C1.53665 3.91325 0.638603 5.84903 0.638603 8.18394C0.638603 9.54098 0.917997 10.6785 1.47678 11.6364C2.03556 12.5943 2.77395 13.3128 3.65203 13.7917C4.55007 14.2707 5.52794 14.6698 6.62555 14.9691C7.70319 15.2685 8.8008 15.508 9.87845 15.7075C10.9561 15.9071 11.9539 16.1067 12.832 16.3461C13.7301 16.5856 14.4485 16.9448 15.0073 17.4238C15.566 17.9027 15.8454 18.5214 15.8454 19.2797C15.8454 20.2177 15.4263 20.9561 14.6081 21.5149C13.7899 22.0736 12.6524 22.353 11.2155 22.353C9.7188 22.353 8.46154 21.9938 7.44376 21.2953C6.42598 20.5769 5.8672 19.6589 5.76742 18.5214H0C0.259434 21.3353 1.43686 23.5305 3.53229 25.127C5.62772 26.7235 8.30189 27.5218 11.5548 27.5218C14.4684 27.5218 16.8832 26.7435 18.8389 25.1469C20.7747 23.5704 21.7526 21.5947 21.7526 19.2199C21.7526 17.9027 21.533 16.7652 21.094 15.7874C20.6549 14.8294 20.0762 14.0911 19.3578 13.5522Z" fill="currentColor"/><path d="M43.4035 1.77944C41.4477 0.681829 39.2924 0.123047 36.9376 0.123047C34.443 0.123047 32.168 0.721741 30.0925 1.91913C28.017 3.11652 26.3806 4.75295 25.1633 6.82842C23.9659 8.9039 23.3672 11.1989 23.3672 13.7134C23.3672 16.2878 23.9659 18.6427 25.1633 20.758C26.3607 22.8734 28.017 24.5498 30.0925 25.7472C32.168 26.9446 34.5029 27.5432 37.0374 27.5432C40.2903 27.5432 43.0443 26.7051 45.3193 25.0088C47.5943 23.3324 48.9913 21.0973 49.4702 18.3234H43.4434C43.184 19.4409 42.4655 20.3589 41.3081 21.0574C40.1506 21.7559 38.7536 22.1151 37.1372 22.1151C35.0617 22.1151 33.3454 21.5563 32.0083 20.4387C30.6713 19.3212 29.8131 17.7646 29.434 15.8088H49.6299C49.7297 15.3299 49.7895 14.4917 49.7895 13.2744C49.7895 10.7599 49.2108 8.50477 48.0533 6.46921C46.9158 4.43365 45.3592 2.87704 43.4035 1.77944ZM29.5936 10.6601C30.0326 9.04359 30.8708 7.78634 32.0882 6.90825C33.3255 6.01021 34.8222 5.57117 36.5784 5.57117C38.3744 5.57117 39.8512 6.05012 41.0686 6.96812C42.266 7.90607 43.0043 9.14338 43.2638 10.6601H29.5936Z" fill="currentColor"/><path d="M71.6047 1.77943C69.6489 0.681829 67.4936 0.123047 65.1388 0.123047C62.6442 0.123047 60.3692 0.721741 58.2937 1.91913C56.1983 3.09656 54.5618 4.73299 53.3644 6.80846C52.1671 8.88394 51.5684 11.1789 51.5684 13.6934C51.5684 16.2678 52.1671 18.6227 53.3644 20.7381C54.5618 22.8535 56.2182 24.5298 58.2937 25.7272C60.3692 26.9246 62.7041 27.5233 65.2385 27.5233C68.4914 27.5233 71.2454 26.6851 73.5205 24.9888C75.7955 23.3125 77.1925 21.0773 77.6714 18.3034H71.6446C71.3851 19.421 70.6667 20.339 69.5092 21.0374C68.3518 21.7359 66.9548 22.0951 65.3383 22.0951C63.2629 22.0951 61.5466 21.5363 60.2095 20.4188C58.8724 19.3012 58.0143 17.7446 57.6351 15.7889H77.8311C77.9309 15.3099 77.9907 14.4718 77.9907 13.2544C77.9907 10.7399 77.412 8.48481 76.2545 6.44925C75.097 4.43365 73.5404 2.87704 71.6047 1.77943ZM57.7948 10.6601C58.2338 9.04359 59.072 7.78633 60.2893 6.90825C61.5266 6.01021 63.0234 5.57116 64.7795 5.57116C66.5756 5.57116 68.0524 6.05012 69.2698 6.96812C70.4671 7.90607 71.2055 9.14337 71.465 10.6601H57.7948Z" fill="currentColor"/><path d="M92.559 0.101562C83.5387 0.101562 80.166 6.86681 80.166 11.8759V26.9829H86.1929V13.0733C86.1929 10.9978 86.7716 9.34141 87.949 8.10411C89.1065 6.86681 90.6631 6.2282 92.559 6.2282C94.4748 6.2282 96.0115 6.84685 97.1689 8.10411C98.3264 9.34141 98.9251 10.9978 98.9251 13.0733V27.0029H104.952V11.8759C104.952 6.80694 101.619 0.101562 92.559 0.101562Z" fill="currentColor"/><path d="M107.84 0V0.642223H106.636V4.00412H105.982V0.642223H104.775V0H107.84Z" fill="currentColor"/><path d="M108.338 4.00412V0H109.128L110.434 3.02124L111.78 0H112.45V4.00412H111.796V1.31516L110.625 4.00412H110.143L108.994 1.31516V4.00412H108.338Z" fill="currentColor"/></svg>